<?xml version="1.0" encoding="UTF-8"?><svg id="Layer_1" xmlns="http://www.w3.org/2000/svg" viewBox="0 0 1920 550.58"><defs><style>.cls-1{fill:#ece3ce;fill-rule:evenodd;}</style></defs><path class="cls-1" d="M0,0V527.53c36.32,21.83,81.15,29.37,125.26,17.35,84.38-22.99,134.73-108.97,114.12-193.43,45.44,21.63,98.54,27.72,150.9,13.45,66.94-18.23,118.05-65.74,143.3-124.96,54.09,10.43,111.34,8.96,168.09-6.5,101.45-27.63,181.62-94.62,228.49-179.99,11.51,52.33,48.88,97.76,103.06,117.14,9.75,3.49,19.61,5.98,29.48,7.52-1.28,3-2.48,6.06-3.6,9.17-29.95,83.73,13.63,175.88,97.35,205.83,82.35,29.47,172.85-12.22,204.31-93.26,24.87,43.75,64.92,79.14,116.02,97.42,65.32,23.37,134.43,13.68,189.03-20.42,38.38,39.51,86.17,71.09,141.55,90.91,37.21,13.32,75.15,20.34,112.64,21.64V0H0Z"/></svg>